# xmcd
#
# Track frame offsets:
#	150
#	16273
#	33408
#	49761
#	65502
#	82636
#	100229
#	115208
#	129286
#	148893
#
# Disc length: 2210 seconds
#
# Revision: 1
# Processed by: cddbd v1.5.1PL2 Copyright (c) Steve Scherf et al.
# Submitted via: audiograbber 1.83.01
#
DISCID=7c08a00a
DTITLE=Jennifer Rush - Movin
DYEAR=1900
DGENRE=
TTITLE0=Destiny
TTITLE1=Live Wire
TTITLE2=Silent Killer
TTITLE3=Automatic
TTITLE4=If you're ever gonna lose my love
TTITLE5=Ave maria
TTITLE6=Testify with my heart
TTITLE7=Yesterme, Yteryou, Yesterday
TTITLE8=The Right Time has come
TTITLE9=Hero of a fool
EXTD=
EXTT0=
EXTT1=
EXTT2=
EXTT3=
EXTT4=
EXTT5=
EXTT6=
EXTT7=
EXTT8=
EXTT9=
PLAYORDER=
